PathFileType	3	(X/Y/Z)	RCH0000005 BBF 05.c3d
DataRate	CameraRate	NumFrames	NumMarkers	Units	OrigDataRate	OrigDataStartFrame	OrigNumFrames
100.0	100.0	5	23	mm	100.0	344	453
Frame#	Time	T2			T10			MAN			LASI			RASI			LPSI			RPSI			LPAT			LKNE			LANK			LMED			LHEE			LTOE			RPAT			RKNE			RANK			RMED			RHEE			RTOE			LTHI			LTIB			RTHI			RTIB			
		X1	Y1	Z1	X2	Y2	Z2	X3	Y3	Z3	X4	Y4	Z4	X5	Y5	Z5	X6	Y6	Z6	X7	Y7	Z7	X8	Y8	Z8	X9	Y9	Z9	X10	Y10	Z10	X11	Y11	Z11	X12	Y12	Z12	X13	Y13	Z13	X14	Y14	Z14	X15	Y15	Z15	X16	Y16	Z16	X17	Y17	Z17	X18	Y18	Z18	X19	Y19	Z19	X20	Y20	Z20	X21	Y21	Z21	X22	Y22	Z22	X23	Y23	Z23	

344	3.430	2121.75569	165.11060	1320.27996	2095.42121	149.75005	1101.68511	2252.18089	146.82997	1270.78098	2222.59298	232.07997	913.66975	2237.56262	42.46162	917.46670	2084.89734	163.45151	945.34833	2086.23094	77.40541	937.21381	2257.73260	172.13000	504.93218	2202.38779	243.45749	450.17532	2104.70063	244.48681	68.32547	2102.87998	160.83057	71.78129	2041.50748	218.87610	50.74177	2160.15346	212.14081	65.51649	2389.18770	62.62051	548.95991	2329.31988	8.21862	469.65292	2186.34277	40.62289	117.73998	2217.67890	115.90699	120.53911	2135.29263	83.27529	119.29979	2243.29571	47.54165	96.49707	2198.55617	317.05242	607.48161	2150.75963	315.82480	277.00728	2280.32566	-66.25319	635.09348	2237.54343	-43.33115	342.00751	
345	3.440	2132.99541	165.20327	1320.56297	2106.24532	148.99367	1102.10792	2263.11422	147.29282	1270.86358	2231.97538	232.16549	913.74705	2248.91093	42.83191	917.68581	2095.10220	162.03028	945.89114	2097.24247	75.97478	937.76742	2260.99864	172.03728	503.54390	2204.56663	243.20382	449.77707	2104.76335	244.27580	68.62390	2103.15203	160.58657	71.97592	2041.56444	218.56859	51.29155	2160.26011	211.93453	65.55781	2400.62533	63.82155	550.64414	2342.65471	8.09615	470.76904	2220.37059	37.93914	110.55640	2251.36323	113.39375	114.54867	2169.14695	80.47143	108.88849	2278.38677	44.84997	92.58947	2202.55384	316.76933	607.19710	2151.74918	315.59002	277.09854	2293.04790	-66.45556	635.94877	2257.58949	-44.23549	338.38521	
346	3.450	2144.29965	165.22196	1320.56949	2117.04973	148.10448	1102.27003	2274.13081	147.73090	1270.55869	2241.31081	232.19428	913.62476	2260.22181	43.13822	917.56996	2105.24609	160.50681	946.10051	2108.23555	74.45538	937.95085	2264.49373	172.08063	502.07389	2206.95569	243.00358	449.30912	2104.84402	244.07462	68.91660	2103.41438	160.34439	72.16926	2041.63341	218.27335	51.85445	2160.35635	211.71425	65.59682	2411.43653	65.19593	551.53745	2355.50468	8.00310	471.18843	2254.80021	34.99715	104.00776	2285.05308	110.71860	109.07377	2203.43379	77.21867	99.09584	2313.61423	42.13917	89.33530	2206.62979	316.51805	606.84136	2152.92878	315.37542	277.12182	2305.12234	-66.59396	636.04217	2277.85722	-45.33271	334.61989	
347	3.460	2155.65553	165.16117	1320.30161	2127.84006	147.09310	1102.16979	2285.22638	148.13155	1269.88241	2250.63214	232.16315	913.30912	2271.50120	43.37417	917.13439	2115.35349	158.89972	945.97626	2119.22461	72.86268	937.76409	2268.21721	172.25517	500.51411	2209.55701	242.86075	448.77232	2104.94385	243.89094	69.19862	2103.66500	160.11570	72.36244	2041.71659	218.00351	52.42690	2160.43951	211.48980	65.63389	2421.65770	66.71607	551.66209	2367.92975	7.90927	470.94519	2289.44197	31.87607	98.21428	2318.53970	107.95493	104.21000	2237.94351	73.57509	90.06991	2348.78747	39.51291	86.81035	2210.82756	316.30235	606.42135	2154.28802	315.18927	277.07590	2316.59614	-66.70132	635.41252	2298.38178	-46.63264	330.78568	
348	3.470	2167.05161	165.01445	1319.76843	2138.62413	145.97489	1101.81198	2296.39606	148.48047	1268.86011	2259.97592	232.06842	912.80835	2282.75712	43.53335	916.40388	2125.45229	157.22979	945.52611	2130.22498	71.21398	937.21741	2272.16010	172.54782	498.86008	2212.36711	242.77441	448.17080	2105.06366	243.73236	69.46740	2103.90326	159.91149	72.55756	2041.81555	217.77235	53.00757	2160.50705	211.27025	65.66989	2431.34496	68.34614	551.06877	2380.00012	7.78565	470.09925	2324.06343	28.66703	93.26117	2351.59286	105.18234	100.02273	2272.42720	69.62357	81.92835	2383.68147	37.07332	85.05152	2215.18967	316.12276	605.94349	2155.81427	315.03735	276.96450	2327.55542	-66.81266	634.13289	2319.16345	-48.12839	326.96484	
